<?xml version="1.0" standalone="no"?>
<svg xmlns:xlink="http://www.w3.org/1999/xlink" id="wave" style="transform:rotate(0deg); transition: 0.3s" viewBox="0 0 1440 240" version="1.1" xmlns="http://www.w3.org/2000/svg"><defs><linearGradient id="sw-gradient-0" x1="0" x2="0" y1="1" y2="0"><stop stop-color="rgba(255, 249, 234, 1)" offset="0%"/><stop stop-color="rgba(255, 249, 234, 1)" offset="100%"/></linearGradient></defs><path style="transform:translate(0, 0px); opacity:1" fill="url(#sw-gradient-0)" d="M0,192L40,180C80,168,160,144,240,132C320,120,400,120,480,124C560,128,640,136,720,152C800,168,880,192,960,196C1040,200,1120,184,1200,160C1280,136,1360,104,1440,96C1520,88,1600,104,1680,96C1760,88,1840,56,1920,64C2000,72,2080,120,2160,116C2240,112,2320,56,2400,48C2480,40,2560,80,2640,100C2720,120,2800,120,2880,132C2960,144,3040,168,3120,180C3200,192,3280,192,3360,160C3440,128,3520,64,3600,64C3680,64,3760,128,3840,152C3920,176,4000,160,4080,164C4160,168,4240,192,4320,184C4400,176,4480,136,4560,108C4640,80,4720,64,4800,64C4880,64,4960,80,5040,76C5120,72,5200,48,5280,64C5360,80,5440,136,5520,140C5600,144,5680,96,5720,72L5760,48L5760,240L5720,240C5680,240,5600,240,5520,240C5440,240,5360,240,5280,240C5200,240,5120,240,5040,240C4960,240,4880,240,4800,240C4720,240,4640,240,4560,240C4480,240,4400,240,4320,240C4240,240,4160,240,4080,240C4000,240,3920,240,3840,240C3760,240,3680,240,3600,240C3520,240,3440,240,3360,240C3280,240,3200,240,3120,240C3040,240,2960,240,2880,240C2800,240,2720,240,2640,240C2560,240,2480,240,2400,240C2320,240,2240,240,2160,240C2080,240,2000,240,1920,240C1840,240,1760,240,1680,240C1600,240,1520,240,1440,240C1360,240,1280,240,1200,240C1120,240,1040,240,960,240C880,240,800,240,720,240C640,240,560,240,480,240C400,240,320,240,240,240C160,240,80,240,40,240L0,240Z"/></svg>