<?xml version="1.0" standalone="no"?>
<svg xmlns:xlink="http://www.w3.org/1999/xlink" id="wave" style="transform:rotate(180deg); transition: 0.3s" viewBox="0 0 1440 100" version="1.1" xmlns="http://www.w3.org/2000/svg"><defs><linearGradient id="sw-gradient-0" x1="0" x2="0" y1="1" y2="0"><stop stop-color="rgba(255, 249, 234, 1)" offset="0%"/><stop stop-color="rgba(255, 249, 234, 1)" offset="100%"/></linearGradient></defs><path style="transform:translate(0, 0px); opacity:1" fill="url(#sw-gradient-0)" d="M0,10L24,11.7C48,13,96,17,144,18.3C192,20,240,20,288,21.7C336,23,384,27,432,38.3C480,50,528,70,576,71.7C624,73,672,57,720,48.3C768,40,816,40,864,45C912,50,960,60,1008,66.7C1056,73,1104,77,1152,70C1200,63,1248,47,1296,38.3C1344,30,1392,30,1440,30C1488,30,1536,30,1584,26.7C1632,23,1680,17,1728,15C1776,13,1824,17,1872,16.7C1920,17,1968,13,2016,16.7C2064,20,2112,30,2160,43.3C2208,57,2256,73,2304,71.7C2352,70,2400,50,2448,40C2496,30,2544,30,2592,31.7C2640,33,2688,37,2736,38.3C2784,40,2832,40,2880,46.7C2928,53,2976,67,3024,68.3C3072,70,3120,60,3168,60C3216,60,3264,70,3312,76.7C3360,83,3408,87,3432,88.3L3456,90L3456,100L3432,100C3408,100,3360,100,3312,100C3264,100,3216,100,3168,100C3120,100,3072,100,3024,100C2976,100,2928,100,2880,100C2832,100,2784,100,2736,100C2688,100,2640,100,2592,100C2544,100,2496,100,2448,100C2400,100,2352,100,2304,100C2256,100,2208,100,2160,100C2112,100,2064,100,2016,100C1968,100,1920,100,1872,100C1824,100,1776,100,1728,100C1680,100,1632,100,1584,100C1536,100,1488,100,1440,100C1392,100,1344,100,1296,100C1248,100,1200,100,1152,100C1104,100,1056,100,1008,100C960,100,912,100,864,100C816,100,768,100,720,100C672,100,624,100,576,100C528,100,480,100,432,100C384,100,336,100,288,100C240,100,192,100,144,100C96,100,48,100,24,100L0,100Z"/></svg>